<?xml version="1.0" encoding="utf-8"?>
<!-- Generator: Adobe Illustrator 15.1.0, SVG Export Plug-In . SVG Version: 6.00 Build 0)  -->

<svg version="1.1" id="Layer_1" xmlns="http://www.w3.org/2000/svg" xmlns:xlink="http://www.w3.org/1999/xlink" x="0px" y="0px"
	 width="24px" height="24px" viewBox="0 0 24 24" enable-background="new 0 0 24 24" xml:space="preserve">
<g>
	<g>
		<g>
			<g>
				<path fill="#FFFFFF" d="M1.6,21.8c-1.1,0-1.5-0.4-1.5-1.5V4.2l3.8-4h11.9c1.1,0,1.5,0.4,1.5,1.5v18.7c0,1.1-0.4,1.5-1.5,1.5H1.6
					z"/>
				<path fill="#7F8C8D" d="M15.9,0.3c1,0,1.3,0.3,1.3,1.3v18.7c0,1-0.3,1.3-1.3,1.3H1.6c-1,0-1.3-0.3-1.3-1.3V4.2l3.8-3.9H15.9
					 M15.9,0h-12L0,4.1v16.2C0,21.6,0.5,22,1.6,22h14.3c1.2,0,1.6-0.5,1.6-1.6V1.6C17.5,0.4,17.1,0,15.9,0L15.9,0z"/>
			</g>
		</g>
		<polygon fill="#3498DB" points="3.9,4 0,4 3.9,0 		"/>
		<polygon fill="#BDC3C7" points="3.9,0 7.9,0 4,4.1 		"/>
	</g>
	<rect x="4" fill="#7F8C8D" width="7" height="1"/>
	<rect y="21" fill="#7F8C8D" width="17" height="1"/>
	<rect y="4" fill="#7F8C8D" width="1" height="17"/>
</g>
<g>
	<g>
		<g>
			<g>
				<path fill="#3498DB" d="M4.6,22.8c-1.1,0-1.5-0.4-1.5-1.5V6.2l3.8-4h10.4c1.1,0,1.5,0.4,1.5,1.5v17.7c0,1.1-0.4,1.5-1.5,1.5H4.6
					z"/>
				<path fill="#3498DB" d="M17.4,2.3c1,0,1.3,0.3,1.3,1.3v17.7c0,1-0.3,1.3-1.3,1.3H4.6c-1,0-1.3-0.3-1.3-1.3V6.3l3.8-3.9H17.4
					 M17.4,2H6.9L3,6.2v15.2C3,22.6,3.5,23,4.6,23h12.7c1.2,0,1.6-0.5,1.6-1.6V3.7C19,2.5,18.6,2,17.4,2L17.4,2z"/>
			</g>
		</g>
		<polygon fill="#DFDFDF" points="6.9,6 3,6 6.9,2 		"/>
		<polygon fill="#1A2A57" points="6.9,2 10.9,2 7,6.2 		"/>
	</g>
</g>
<g>
	<path fill-rule="evenodd" clip-rule="evenodd" fill="#FFFFFF" d="M5.1,11.1l7.9,0v1H5.1V11.1z"/>
	<path fill-rule="evenodd" clip-rule="evenodd" fill="#FFFFFF" d="M5,8.1l11,0v1H5V8.1z"/>
	<path fill-rule="evenodd" clip-rule="evenodd" fill="#FFFFFF" d="M5,14h6v1H5V14z"/>
	<path fill-rule="evenodd" clip-rule="evenodd" fill="#FFFFFF" d="M5,17h6v1H5V17z"/>
</g>
<path opacity="0.5" fill="#FFFFFF" d="M19,11.7c-0.8-0.5-1.7-0.7-2.8-0.7c-3,0-5.5,2.5-5.5,5.5s2.5,5.5,5.5,5.5c1,0,1.9-0.3,2.8-0.7
	V11.7z"/>
<g>
	<circle fill="#FFFFFF" cx="16.8" cy="16.3" r="4"/>
	<g>
		<g>
			<path fill="#2980B9" d="M16.8,21.7c-2.8,0-5-2.2-5-5c0-2.8,2.2-5,5-5s5,2.2,5,5C21.8,19.5,19.6,21.7,16.8,21.7z M16.8,13.3
				c-1.9,0-3.5,1.6-3.5,3.5c0,1.9,1.6,3.5,3.5,3.5c1.9,0,3.5-1.6,3.5-3.5C20.3,14.8,18.7,13.3,16.8,13.3z"/>
		</g>
		<g>
			<path fill="#2C3E50" d="M23.2,24c-0.2,0-0.4-0.1-0.5-0.2l-3.1-3.1c-0.3-0.3-0.3-0.8,0-1.1c0.3-0.3,0.8-0.3,1.1,0l3.1,3.1
				c0.3,0.3,0.3,0.8,0,1.1C23.6,23.9,23.4,24,23.2,24z"/>
		</g>
	</g>
</g>
</svg>
