<?xml version="1.0" encoding="utf-8"?>
<!-- Generator: Adobe Illustrator 15.0.0, SVG Export Plug-In . SVG Version: 6.00 Build 0)  -->

<svg version="1.1" id="Layer_1" xmlns="http://www.w3.org/2000/svg" xmlns:xlink="http://www.w3.org/1999/xlink" x="0px" y="0px"
	 width="80px" height="80px" viewBox="0 0 80 80" enable-background="new 0 0 80 80" xml:space="preserve">
<g>
	<g>
		<g>
			<g>
				<g>
					<path fill="#FFFFFF" stroke="#95A5A6" stroke-miterlimit="10" d="M14.8,77.4c-3.6,0-4.8-1.2-4.8-4.8V16.3l12.4-13h38.2
						c3.6,0,4.8,1.2,4.8,4.7v64.6c0,3.6-1.2,4.8-4.8,4.8H14.8z"/>
					<path fill="#FFFFFF" stroke="#95A5A6" stroke-miterlimit="10" d="M60.6,3.8c3.3,0,4.3,1,4.3,4.2v64.6c0,3.3-1,4.3-4.3,4.3H14.8
						c-3.3,0-4.3-1-4.3-4.3V16.5L22.6,3.8H60.6 M60.6,2.8H22.2L9.5,16.1v56.5c0,3.8,1.4,5.3,5.3,5.3h45.8c3.8,0,5.3-1.4,5.3-5.3V8.1
						C65.9,4.3,64.4,2.8,60.6,2.8L60.6,2.8z"/>
				</g>
			</g>
			<polygon fill="#3498DB" points="22.1,16.1 9.5,16.1 22.1,2.8 			"/>
			<polygon fill="#BDC3C7" points="22.2,2.8 34.8,2.8 22.2,16.1 			"/>
		</g>
		<g>
			<rect x="18.5" y="62.8" fill="#BDC3C7" width="38.4" height="4.3"/>
			<rect x="18.5" y="51.7" fill="#BDC3C7" width="38.4" height="4.3"/>
			<rect x="18.5" y="41.3" fill="#BDC3C7" width="38.4" height="4.3"/>
			<rect x="18.5" y="29.6" fill="#C0392B" width="21.7" height="4.3"/>
		</g>
	</g>
</g>
<g>
	<rect x="42" y="54" fill="#FFFFFF" width="29" height="25"/>
	<g>
		<path fill="#2980B9" d="M67,50v0.1v2.5V53h-1.1h-4H61v-0.3v-2.5V50h-9v0.1v2.5V53h-0.6h-4H46v-0.3v-2.5V50h-5v30h31V50H67z M70,78
			H43V55h27V78z"/>
	</g>
	<rect x="45.8" y="57.8" fill="#47ABE2" width="4.2" height="4.2"/>
	<rect x="54.6" y="57.8" fill="#47ABE2" width="4.2" height="4.2"/>
	<rect x="63.4" y="57.9" fill="#47ABE2" width="4.2" height="4.2"/>
	<rect x="45.8" y="64.2" fill="#47ABE2" width="4.2" height="4.2"/>
	<rect x="54.6" y="64.2" fill="#47ABE2" width="4.2" height="4.2"/>
	<rect x="63.4" y="64.3" fill="#47ABE2" width="4.2" height="4.2"/>
	<rect x="45.8" y="70.6" fill="#47ABE2" width="4.2" height="4.2"/>
	<rect x="54.6" y="70.6" fill="#47ABE2" width="4.2" height="4.2"/>
	<rect x="63.5" y="70.7" fill="#47ABE2" width="4.2" height="4.2"/>
	<rect x="47.4" y="46.6" fill="#2980B9" width="4" height="5.6"/>
	<rect x="61.9" y="46.6" fill="#2980B9" width="4" height="5.6"/>
</g>
<g>
	<path fill="#F39C12" d="M33,21.8h25.8l0.2-0.2c0.5-0.5,0.5-1.4,0-1.9L46.8,0.5c-0.5-0.5-1.4-0.5-1.9,0L32.7,19.6
		c-0.5,0.5-0.5,1.4,0,1.9L33,21.8z"/>
	<g>
		<path fill="#FFFFFF" d="M47.7,18.2c0,0.5-0.2,1-0.6,1.3c-0.4,0.4-0.8,0.5-1.3,0.5c-0.5,0-1-0.2-1.3-0.5c-0.4-0.4-0.6-0.8-0.6-1.3
			s0.2-1,0.6-1.3c0.4-0.4,0.8-0.6,1.3-0.6c0.5,0,1,0.2,1.3,0.6C47.5,17.2,47.7,17.7,47.7,18.2z M47.7,6.1c0,0.3-0.1,1.4-0.4,3.4
			c-0.3,1.9-0.5,3.7-0.7,5.5H45c-0.2-1.8-0.4-3.6-0.6-5.5c-0.3-1.9-0.4-3-0.4-3.4c0-0.4,0.1-0.7,0.4-1c0.3-0.3,1-0.4,1.5-0.4
			c0.4,0,1.2,0.1,1.5,0.4C47.6,5.4,47.7,5.7,47.7,6.1z"/>
	</g>
</g>
</svg>
