<?xml version="1.0" encoding="UTF-8"?>
<!-- Generator: Adobe Illustrator 15.0.0, SVG Export Plug-In . SVG Version: 6.00 Build 0)  -->
<svg version="1.1" id="Layer_1" xmlns="http://www.w3.org/2000/svg" xmlns:xlink="http://www.w3.org/1999/xlink" x="0px" y="0px" width="24px" height="24px" viewBox="0 0 24 24" enable-background="new 0 0 24 24" xml:space="preserve">
<g>
	<g>
		<g opacity="0.6">
			<g>
				<rect x="7.2" fill="#7F8C8D" width="0.5" height="0.3"/>
			</g>
			<g>
				<path fill="#7F8C8D" d="M7.7,23.4H7.2V23h0.5V23.4z M7.7,22.4H7.2v-0.6h0.5V22.4z M7.7,21.1H7.2v-0.6h0.5V21.1z M7.7,19.8H7.2      v-0.6h0.5V19.8z M7.7,18.5H7.2v-0.6h0.5V18.5z M7.7,17.2H7.2v-0.6h0.5V17.2z M7.7,15.9H7.2v-0.6h0.5V15.9z M7.7,14.6H7.2v-0.6      h0.5V14.6z M7.7,13.3H7.2v-0.6h0.5V13.3z M7.7,12H7.2v-0.6h0.5V12z M7.7,10.7H7.2v-0.6h0.5V10.7z M7.7,9.4H7.2V8.8h0.5V9.4z       M7.7,8.1H7.2V7.5h0.5V8.1z M7.7,6.8H7.2V6.2h0.5V6.8z M7.7,5.5H7.2V4.9h0.5V5.5z M7.7,4.2H7.2V3.6h0.5V4.2z M7.7,2.9H7.2V2.3      h0.5V2.9z M7.7,1.6H7.2V1h0.5V1.6z"/>
			</g>
			<g>
				<rect x="7.2" y="23.7" fill="#7F8C8D" width="0.5" height="0.3"/>
			</g>
		</g>
		<g opacity="0.6">
			<g>
				<rect x="14.6" fill="#7F8C8D" width="0.3" height="0.3"/>
			</g>
			<g>
				<path fill="#7F8C8D" d="M14.9,23.4h-0.3V23h0.3V23.4z M14.9,22.4h-0.3v-0.6h0.3V22.4z M14.9,21.1h-0.3v-0.6h0.3V21.1z       M14.9,19.8h-0.3v-0.6h0.3V19.8z M14.9,18.5h-0.3v-0.6h0.3V18.5z M14.9,17.2h-0.3v-0.6h0.3V17.2z M14.9,15.9h-0.3v-0.6h0.3V15.9      z M14.9,14.6h-0.3v-0.6h0.3V14.6z M14.9,13.3h-0.3v-0.6h0.3V13.3z M14.9,12h-0.3v-0.6h0.3V12z M14.9,10.7h-0.3v-0.6h0.3V10.7z       M14.9,9.4h-0.3V8.8h0.3V9.4z M14.9,8.1h-0.3V7.5h0.3V8.1z M14.9,6.8h-0.3V6.2h0.3V6.8z M14.9,5.5h-0.3V4.9h0.3V5.5z M14.9,4.2      h-0.3V3.6h0.3V4.2z M14.9,2.9h-0.3V2.3h0.3V2.9z M14.9,1.6h-0.3V1h0.3V1.6z"/>
			</g>
			<g>
				<rect x="14.6" y="23.7" fill="#7F8C8D" width="0.3" height="0.3"/>
			</g>
		</g>
		<g opacity="0.6">
			<g>
				<rect x="21.4" fill="#7F8C8D" width="0.3" height="0.3"/>
			</g>
			<g>
				<path fill="#7F8C8D" d="M21.7,23.4h-0.3V23h0.3V23.4z M21.7,22.4h-0.3v-0.6h0.3V22.4z M21.7,21.1h-0.3v-0.6h0.3V21.1z       M21.7,19.8h-0.3v-0.6h0.3V19.8z M21.7,18.5h-0.3v-0.6h0.3V18.5z M21.7,17.2h-0.3v-0.6h0.3V17.2z M21.7,15.9h-0.3v-0.6h0.3V15.9      z M21.7,14.6h-0.3v-0.6h0.3V14.6z M21.7,13.3h-0.3v-0.6h0.3V13.3z M21.7,12h-0.3v-0.6h0.3V12z M21.7,10.7h-0.3v-0.6h0.3V10.7z       M21.7,9.4h-0.3V8.8h0.3V9.4z M21.7,8.1h-0.3V7.5h0.3V8.1z M21.7,6.8h-0.3V6.2h0.3V6.8z M21.7,5.5h-0.3V4.9h0.3V5.5z M21.7,4.2      h-0.3V3.6h0.3V4.2z M21.7,2.9h-0.3V2.3h0.3V2.9z M21.7,1.6h-0.3V1h0.3V1.6z"/>
			</g>
			<g>
				<rect x="21.4" y="23.7" fill="#7F8C8D" width="0.3" height="0.3"/>
			</g>
		</g>
	</g>
	<g>
		<g opacity="0.6">
			<g>
				<rect y="18.2" fill="#7F8C8D" width="0.3" height="0.5"/>
			</g>
			<g>
				<path fill="#7F8C8D" d="M23.1,18.2v0.5h-0.3v-0.5H23.1z M22.1,18.2v0.5h-0.6v-0.5H22.1z M20.8,18.2v0.5h-0.6v-0.5H20.8z       M19.6,18.2v0.5h-0.6v-0.5H19.6z M18.3,18.2v0.5h-0.6v-0.5H18.3z M17,18.2v0.5h-0.6v-0.5H17z M15.7,18.2v0.5h-0.6v-0.5H15.7z       M14.4,18.2v0.5h-0.6v-0.5H14.4z M13.1,18.2v0.5h-0.6v-0.5H13.1z M11.9,18.2v0.5h-0.6v-0.5H11.9z M10.6,18.2v0.5H9.9v-0.5H10.6z       M9.3,18.2v0.5H8.7v-0.5H9.3z M8,18.2v0.5H7.4v-0.5H8z M6.7,18.2v0.5H6.1v-0.5H6.7z M5.5,18.2v0.5H4.8v-0.5H5.5z M4.2,18.2v0.5      H3.5v-0.5H4.2z M2.9,18.2v0.5H2.2v-0.5H2.9z M1.6,18.2v0.5H1v-0.5H1.6z"/>
			</g>
			<g>
				<rect x="23.4" y="18.2" fill="#7F8C8D" width="0.3" height="0.5"/>
			</g>
		</g>
		<g opacity="0.6">
			<g>
				<rect y="11" fill="#7F8C8D" width="0.3" height="0.3"/>
			</g>
			<g>
				<path fill="#7F8C8D" d="M23.1,11v0.3h-0.3V11H23.1z M22.1,11v0.3h-0.6V11H22.1z M20.8,11v0.3h-0.6V11H20.8z M19.6,11v0.3h-0.6      V11H19.6z M18.3,11v0.3h-0.6V11H18.3z M17,11v0.3h-0.6V11H17z M15.7,11v0.3h-0.6V11H15.7z M14.4,11v0.3h-0.6V11H14.4z M13.1,11      v0.3h-0.6V11H13.1z M11.9,11v0.3h-0.6V11H11.9z M10.6,11v0.3H9.9V11H10.6z M9.3,11v0.3H8.7V11H9.3z M8,11v0.3H7.4V11H8z M6.7,11      v0.3H6.1V11H6.7z M5.5,11v0.3H4.8V11H5.5z M4.2,11v0.3H3.5V11H4.2z M2.9,11v0.3H2.2V11H2.9z M1.6,11v0.3H1V11H1.6z"/>
			</g>
			<g>
				<rect x="23.4" y="11" fill="#7F8C8D" width="0.3" height="0.3"/>
			</g>
		</g>
		<g opacity="0.6">
			<g>
				<rect y="4.2" fill="#7F8C8D" width="0.3" height="0.3"/>
			</g>
			<g>
				<path fill="#7F8C8D" d="M23.1,4.2v0.3h-0.3V4.2H23.1z M22.1,4.2v0.3h-0.6V4.2H22.1z M20.8,4.2v0.3h-0.6V4.2H20.8z M19.6,4.2v0.3      h-0.6V4.2H19.6z M18.3,4.2v0.3h-0.6V4.2H18.3z M17,4.2v0.3h-0.6V4.2H17z M15.7,4.2v0.3h-0.6V4.2H15.7z M14.4,4.2v0.3h-0.6V4.2      H14.4z M13.1,4.2v0.3h-0.6V4.2H13.1z M11.9,4.2v0.3h-0.6V4.2H11.9z M10.6,4.2v0.3H9.9V4.2H10.6z M9.3,4.2v0.3H8.7V4.2H9.3z       M8,4.2v0.3H7.4V4.2H8z M6.7,4.2v0.3H6.1V4.2H6.7z M5.5,4.2v0.3H4.8V4.2H5.5z M4.2,4.2v0.3H3.5V4.2H4.2z M2.9,4.2v0.3H2.2V4.2      H2.9z M1.6,4.2v0.3H1V4.2H1.6z"/>
			</g>
			<g>
				<rect x="23.4" y="4.2" fill="#7F8C8D" width="0.3" height="0.3"/>
			</g>
		</g>
	</g>
	<polygon fill="#2980B9" points="0.1,21.7 10.8,10.6 13.4,12.7 19,6.9 18,5.4 23.2,4.3 22.7,9.5 20.6,8.5 13.4,16.4 10.8,14.3    1.7,23.5  "/>
	<g>
		<rect fill="#DD7228" width="2" height="24"/>
	</g>
	<g>
		<rect y="22" fill="#DD7228" width="24" height="2"/>
	</g>
</g>
</svg>