<?xml version="1.0" encoding="utf-8"?>
<!-- Generator: Adobe Illustrator 15.0.0, SVG Export Plug-In . SVG Version: 6.00 Build 0)  -->

<svg version="1.1" id="Layer_1" xmlns="http://www.w3.org/2000/svg" xmlns:xlink="http://www.w3.org/1999/xlink" x="0px" y="0px"
	 width="16px" height="16px" viewBox="0 0 16 16" enable-background="new 0 0 16 16" xml:space="preserve">
<g>
	<g id="Livello_100_5_">
		<radialGradient id="SVGID_1_" cx="7.7144" cy="-16.6904" r="36.3326" gradientUnits="userSpaceOnUse">
			<stop  offset="0" style="stop-color:#FFFFFF"/>
			<stop  offset="0.4364" style="stop-color:#FBB040"/>
			<stop  offset="0.4435" style="stop-color:#FBAE3F"/>
			<stop  offset="0.5615" style="stop-color:#F78936"/>
			<stop  offset="0.672" style="stop-color:#F36F2F"/>
			<stop  offset="0.7709" style="stop-color:#F2602A"/>
			<stop  offset="0.8485" style="stop-color:#F15A29"/>
			<stop  offset="1" style="stop-color:#DC412B"/>
		</radialGradient>
		<path fill="url(#SVGID_1_)" d="M16,5.6C16,5.3,15.7,5,15.3,5c0,0,0,0-0.1,0h-4.9L8.7,0.5C8.6,0.2,8.3,0,8,0S7.4,0.2,7.3,0.5L5.7,5
			H0.8c0,0-0.1,0-0.1,0C0.3,5,0,5.3,0,5.6c0,0.2,0.1,0.5,0.3,0.6L4.2,9l-1.4,4.3c0,0.1-0.1,0.2-0.1,0.3c0,0.4,0.3,0.7,0.7,0.7
			c0.2,0,0.3-0.1,0.4-0.1L8,11.5l4.1,2.6c0.1,0.1,0.3,0.1,0.4,0.1c0.4,0,0.7-0.3,0.7-0.7c0-0.1,0-0.2-0.1-0.3L11.8,9l3.9-2.7
			C15.9,6.1,16,5.9,16,5.6"/>
	</g>
	<g opacity="0.5">
		<path fill="#C0392B" d="M12.2,11.8c-0.1,0.1-0.2,0.1-0.4,0.1c-0.1,0-0.3,0-0.4-0.1L8,9.7l-3.4,2.2C4.5,11.9,4.3,12,4.2,12
			c-0.1,0-0.3-0.1-0.4-0.1l-0.1,0.4c0,0.1-0.1,0.2-0.1,0.3c0,0.3,0.3,0.6,0.6,0.6c0.1,0,0.3,0,0.4-0.1L8,10.8l3.4,2.2
			c0.1,0.1,0.2,0.1,0.4,0.1c0.3,0,0.6-0.3,0.6-0.6c0-0.1,0-0.2-0.1-0.3L12.2,11.8z"/>
		<path fill="#C0392B" d="M4.8,7.6L1.7,5.4C1.5,5.4,1.3,5.6,1.3,5.9c0,0.2,0.1,0.4,0.3,0.5l2.9,2.1L4.8,7.6z"/>
		<path fill="#C0392B" d="M14.3,5.4l-3.1,2.2l0.3,0.9l2.9-2.1c0.2-0.1,0.3-0.3,0.3-0.5C14.7,5.6,14.5,5.4,14.3,5.4z"/>
	</g>
</g>
</svg>
