<?xml version="1.0" encoding="utf-8"?>
<!-- Generator: Adobe Illustrator 15.0.0, SVG Export Plug-In . SVG Version: 6.00 Build 0)  -->

<svg version="1.1" id="Layer_1" xmlns="http://www.w3.org/2000/svg" xmlns:xlink="http://www.w3.org/1999/xlink" x="0px" y="0px"
	 width="24px" height="24px" viewBox="0 0 24 24" enable-background="new 0 0 24 24" xml:space="preserve">
<g>
	<g>
		<path fill="#2980B9" d="M9.8,19.6C4.4,19.6,0,15.2,0,9.8S4.4,0,9.8,0s9.8,4.4,9.8,9.8S15.2,19.6,9.8,19.6z M9.8,3C6,3,3,6,3,9.8
			s3,6.8,6.8,6.8s6.8-3,6.8-6.8S13.5,3,9.8,3z"/>
	</g>
	<g>
		<path fill="#2980B9" d="M22.3,24c-0.4,0-0.8-0.1-1.1-0.4l-6-6c-0.6-0.6-0.6-1.5,0-2.1c0.6-0.6,1.5-0.6,2.1,0l6,6
			c0.6,0.6,0.6,1.5,0,2.1C23.1,23.9,22.7,24,22.3,24z"/>
	</g>
</g>
</svg>
