<?xml version="1.0" encoding="utf-8"?>
<svg version="1.1" id="Layer_1" xmlns="http://www.w3.org/2000/svg" xmlns:xlink="http://www.w3.org/1999/xlink" x="0px" y="0px"
	 width="13px" height="18px" viewBox="0 0 13 18" enable-background="new 0 0 13 18" xml:space="preserve">
<path fill="#FFFFFF" d="M10,16.201C10,16.641,9.551,17,9.004,17l0,0C8.446,17,8,16.641,8,16.201V1.799C8,1.357,8.446,1,9.004,1l0,0
	C9.551,1,10,1.357,10,1.799V16.201z M5,1.799C5,1.357,4.551,1,3.996,1l0,0C3.447,1,3,1.357,3,1.799v14.402
	C3,16.641,3.447,17,3.996,17l0,0C4.551,17,5,16.641,5,16.201V1.799z"/>
</svg>
